<svg width="26" height="26" viewBox="0 0 26 26" fill="none" xmlns="http://www.w3.org/2000/svg">
<g clip-path="url(#clip0_446_18991)">
<path d="M25.2019 13.2339C25.2019 12.2097 25.1188 11.4622 24.939 10.6871H13.2432V15.31H20.1083C19.97 16.4589 19.2226 18.189 17.5616 19.3516L17.5383 19.5064L21.2363 22.3712L21.4925 22.3968C23.8455 20.2237 25.2019 17.0264 25.2019 13.2339Z" fill="#4285F4"/>
<path d="M13.2433 25.4141C16.6067 25.4141 19.4303 24.3068 21.4927 22.3968L17.5617 19.3516C16.5098 20.0852 15.098 20.5973 13.2433 20.5973C9.94915 20.5973 7.15325 18.4243 6.15659 15.4208L6.01051 15.4332L2.16528 18.4091L2.11499 18.5489C4.16346 22.6181 8.37119 25.4141 13.2433 25.4141Z" fill="#34A853"/>
<path d="M6.15646 15.4208C5.89348 14.6457 5.74129 13.8152 5.74129 12.957C5.74129 12.0988 5.89348 11.2684 6.14262 10.4933L6.13566 10.3282L2.24224 7.30457L2.11485 7.36516C1.27058 9.0538 0.786133 10.9501 0.786133 12.957C0.786133 14.964 1.27058 16.8602 2.11485 18.5488L6.15646 15.4208Z" fill="#FBBC05"/>
<path d="M13.2433 5.3167C15.5825 5.3167 17.1603 6.3271 18.06 7.17147L21.5757 3.73884C19.4165 1.73187 16.6067 0.5 13.2433 0.5C8.37119 0.5 4.16346 3.2959 2.11499 7.36517L6.14276 10.4933C7.15325 7.48979 9.94915 5.3167 13.2433 5.3167Z" fill="#EB4335"/>
</g>
<defs>
<clipPath id="clip0_446_18991">
<rect width="25" height="25" fill="white" transform="translate(0.5 0.5)"/>
</clipPath>
</defs>
</svg>
