<svg width="895" height="256" viewBox="0 0 895 256" fill="none" xmlns="http://www.w3.org/2000/svg">
<path d="M55.1525 0C24.5711 0 0 22.6594 0 55.698H71.2561V255.269C104.295 255.269 131.047 230.698 131.047 200.392V55.698H147.156C177.732 55.698 202.304 33.0333 202.304 0H55.1525Z" fill="white"/>
<path d="M234.031 187.063C228.638 187.063 223.831 186.127 219.611 184.256C215.392 182.348 212.053 179.541 209.595 175.836C207.173 172.093 205.962 167.433 205.962 161.856C205.962 157.16 206.824 153.215 208.549 150.023C210.273 146.831 212.622 144.263 215.594 142.318C218.566 140.373 221.941 138.906 225.721 137.915C229.536 136.924 233.536 136.227 237.719 135.823C242.635 135.31 246.598 134.833 249.607 134.393C252.615 133.916 254.799 133.218 256.156 132.301C257.514 131.384 258.192 130.026 258.192 128.228V127.898C258.192 124.412 257.092 121.716 254.89 119.808C252.725 117.9 249.643 116.946 245.644 116.946C241.424 116.946 238.067 117.881 235.572 119.753C233.077 121.587 231.426 123.899 230.619 126.687L208.934 124.926C210.035 119.789 212.2 115.35 215.429 111.607C218.657 107.828 222.822 104.929 227.922 102.911C233.059 100.857 239.003 99.8292 245.754 99.8292C250.451 99.8292 254.945 100.38 259.238 101.48C263.568 102.581 267.402 104.287 270.741 106.599C274.117 108.91 276.777 111.882 278.721 115.515C280.666 119.111 281.638 123.422 281.638 128.448V185.467H259.403V173.744H258.743C257.385 176.386 255.569 178.716 253.294 180.734C251.019 182.715 248.286 184.275 245.094 185.412C241.901 186.513 238.214 187.063 234.031 187.063ZM240.746 170.882C244.195 170.882 247.24 170.203 249.882 168.846C252.524 167.452 254.597 165.58 256.101 163.232C257.605 160.884 258.358 158.224 258.358 155.252V146.281C257.624 146.758 256.615 147.198 255.331 147.601C254.083 147.968 252.67 148.317 251.093 148.647C249.515 148.941 247.937 149.216 246.359 149.473C244.782 149.693 243.351 149.895 242.067 150.078C239.315 150.482 236.911 151.124 234.857 152.004C232.802 152.885 231.206 154.077 230.068 155.582C228.931 157.049 228.362 158.884 228.362 161.086C228.362 164.278 229.518 166.718 231.83 168.406C234.178 170.057 237.15 170.882 240.746 170.882ZM300.268 185.467V72.7509H323.714V115.129H324.43C325.457 112.855 326.943 110.543 328.888 108.195C330.869 105.81 333.438 103.829 336.593 102.251C339.785 100.636 343.748 99.8292 348.481 99.8292C354.645 99.8292 360.332 101.444 365.543 104.672C370.753 107.865 374.917 112.69 378.036 119.147C381.155 125.568 382.714 133.622 382.714 143.309C382.714 152.738 381.191 160.7 378.146 167.195C375.137 173.652 371.028 178.551 365.818 181.89C360.644 185.192 354.847 186.843 348.426 186.843C343.876 186.843 340.005 186.091 336.813 184.586C333.658 183.082 331.071 181.192 329.053 178.918C327.035 176.606 325.494 174.276 324.43 171.928H323.384V185.467H300.268ZM323.219 143.198C323.219 148.225 323.916 152.61 325.31 156.352C326.705 160.095 328.723 163.012 331.364 165.103C334.006 167.158 337.217 168.185 340.996 168.185C344.812 168.185 348.041 167.14 350.683 165.048C353.324 162.92 355.324 159.985 356.682 156.242C358.076 152.463 358.773 148.115 358.773 143.198C358.773 138.319 358.094 134.026 356.737 130.32C355.379 126.614 353.379 123.715 350.738 121.624C348.096 119.532 344.849 118.487 340.996 118.487C337.18 118.487 333.951 119.496 331.309 121.514C328.704 123.532 326.705 126.394 325.31 130.1C323.916 133.805 323.219 138.172 323.219 143.198ZM421.804 72.7509V185.467H398.358V72.7509H421.804ZM479.112 187.118C470.416 187.118 462.931 185.357 456.657 181.835C450.419 178.276 445.613 173.249 442.237 166.754C438.861 160.223 437.173 152.5 437.173 143.584C437.173 134.888 438.861 127.256 442.237 120.688C445.613 114.12 450.364 109.002 456.492 105.333C462.656 101.664 469.884 99.8292 478.176 99.8292C483.753 99.8292 488.945 100.728 493.752 102.526C498.595 104.287 502.814 106.947 506.41 110.506C510.043 114.065 512.868 118.542 514.886 123.935C516.904 129.292 517.913 135.567 517.913 142.758V149.198H446.53V134.668H495.843C495.843 131.292 495.109 128.302 493.642 125.697C492.174 123.092 490.138 121.055 487.533 119.588C484.964 118.083 481.974 117.331 478.561 117.331C475.002 117.331 471.847 118.157 469.095 119.808C466.38 121.422 464.252 123.605 462.711 126.357C461.17 129.072 460.381 132.099 460.344 135.438V149.253C460.344 153.435 461.115 157.049 462.656 160.095C464.233 163.14 466.453 165.489 469.315 167.14C472.177 168.791 475.571 169.616 479.497 169.616C482.102 169.616 484.487 169.249 486.652 168.516C488.817 167.782 490.67 166.681 492.211 165.213C493.752 163.746 494.926 161.948 495.733 159.82L517.418 161.251C516.317 166.461 514.06 171.011 510.648 174.9C507.273 178.753 502.906 181.761 497.549 183.926C492.229 186.054 486.083 187.118 479.112 187.118ZM521.49 92.3991V72.7509H614.063V92.3991H579.555V185.467H555.999V92.3991H521.49ZM641.472 187.063C636.078 187.063 631.271 186.127 627.052 184.256C622.832 182.348 619.493 179.541 617.035 175.836C614.613 172.093 613.403 167.433 613.403 161.856C613.403 157.16 614.265 153.215 615.989 150.023C617.714 146.831 620.062 144.263 623.034 142.318C626.006 140.373 629.382 138.906 633.161 137.915C636.977 136.924 640.976 136.227 645.159 135.823C650.076 135.31 654.038 134.833 657.047 134.393C660.056 133.916 662.239 133.218 663.597 132.301C664.954 131.384 665.633 130.026 665.633 128.228V127.898C665.633 124.412 664.532 121.716 662.331 119.808C660.166 117.9 657.084 116.946 653.084 116.946C648.865 116.946 645.508 117.881 643.013 119.753C640.518 121.587 638.866 123.899 638.059 126.687L616.375 124.926C617.475 119.789 619.64 115.35 622.869 111.607C626.098 107.828 630.262 104.929 635.362 102.911C640.499 100.857 646.443 99.8292 653.194 99.8292C657.891 99.8292 662.386 100.38 666.679 101.48C671.008 102.581 674.842 104.287 678.181 106.599C681.557 108.91 684.217 111.882 686.162 115.515C688.106 119.111 689.079 123.422 689.079 128.448V185.467H666.844V173.744H666.183C664.826 176.386 663.009 178.716 660.735 180.734C658.46 182.715 655.726 184.275 652.534 185.412C649.342 186.513 645.654 187.063 641.472 187.063ZM648.186 170.882C651.635 170.882 654.68 170.203 657.322 168.846C659.964 167.452 662.037 165.58 663.541 163.232C665.046 160.884 665.798 158.224 665.798 155.252V146.281C665.064 146.758 664.055 147.198 662.771 147.601C661.523 147.968 660.111 148.317 658.533 148.647C656.955 148.941 655.378 149.216 653.8 149.473C652.222 149.693 650.791 149.895 649.507 150.078C646.755 150.482 644.352 151.124 642.297 152.004C640.242 152.885 638.646 154.077 637.509 155.582C636.371 157.049 635.803 158.884 635.803 161.086C635.803 164.278 636.959 166.718 639.27 168.406C641.618 170.057 644.59 170.882 648.186 170.882ZM707.269 217.168V100.93H730.384V115.129H731.43C732.457 112.855 733.943 110.543 735.888 108.195C737.869 105.81 740.438 103.829 743.593 102.251C746.785 100.636 750.748 99.8292 755.481 99.8292C761.645 99.8292 767.332 101.444 772.543 104.672C777.753 107.865 781.917 112.69 785.036 119.147C788.155 125.568 789.714 133.622 789.714 143.309C789.714 152.738 788.192 160.7 785.146 167.195C782.137 173.652 778.028 178.551 772.818 181.89C767.644 185.192 761.847 186.843 755.426 186.843C750.876 186.843 747.005 186.091 743.813 184.586C740.658 183.082 738.071 181.192 736.053 178.918C734.035 176.606 732.494 174.276 731.43 171.928H730.714V217.168H707.269ZM730.219 143.198C730.219 148.225 730.916 152.61 732.31 156.352C733.705 160.095 735.723 163.012 738.365 165.103C741.006 167.158 744.217 168.185 747.996 168.185C751.812 168.185 755.041 167.14 757.683 165.048C760.324 162.92 762.324 159.985 763.682 156.242C765.076 152.463 765.773 148.115 765.773 143.198C765.773 138.319 765.094 134.026 763.737 130.32C762.379 126.614 760.379 123.715 757.738 121.624C755.096 119.532 751.849 118.487 747.996 118.487C744.18 118.487 740.951 119.496 738.31 121.514C735.704 123.532 733.705 126.394 732.31 130.1C730.916 133.805 730.219 138.172 730.219 143.198ZM805.345 217.168V100.93H828.46V115.129H829.506C830.534 112.855 832.02 110.543 833.964 108.195C835.946 105.81 838.514 103.829 841.669 102.251C844.862 100.636 848.824 99.8292 853.557 99.8292C859.722 99.8292 865.409 101.444 870.619 104.672C875.829 107.865 879.994 112.69 883.112 119.147C886.231 125.568 887.791 133.622 887.791 143.309C887.791 152.738 886.268 160.7 883.222 167.195C880.214 173.652 876.104 178.551 870.894 181.89C865.721 185.192 859.923 186.843 853.502 186.843C848.953 186.843 845.082 186.091 841.89 184.586C838.734 183.082 836.147 181.192 834.129 178.918C832.111 176.606 830.57 174.276 829.506 171.928H828.791V217.168H805.345ZM828.295 143.198C828.295 148.225 828.993 152.61 830.387 156.352C831.781 160.095 833.799 163.012 836.441 165.103C839.083 167.158 842.293 168.185 846.072 168.185C849.888 168.185 853.117 167.14 855.759 165.048C858.401 162.92 860.4 159.985 861.758 156.242C863.152 152.463 863.849 148.115 863.849 143.198C863.849 138.319 863.171 134.026 861.813 130.32C860.455 126.614 858.456 123.715 855.814 121.624C853.172 119.532 849.925 118.487 846.072 118.487C842.256 118.487 839.028 119.496 836.386 121.514C833.781 123.532 831.781 126.394 830.387 130.1C828.993 133.805 828.295 138.172 828.295 143.198Z" fill="white"/>
</svg>
